<svg data-v-0dd9719b="" version="1.0" xmlns="http://www.w3.org/2000/svg" xmlns:xlink="http://www.w3.org/1999/xlink" width="100%" height="100%" viewBox="0 0 340.000000 250.000000" preserveAspectRatio="xMidYMid meet" color-interpolation-filters="sRGB" style="margin: auto;"> <rect data-v-0dd9719b="" x="0" y="0" width="100%" height="100%" fill="#fff" fill-opacity="1" class="background"></rect> <rect data-v-0dd9719b="" x="0" y="0" width="100%" height="100%" fill="url(#watermark)" fill-opacity="1" class="watermarklayer"></rect> <g data-v-0dd9719b="" fill="#333" class="icon-text-wrapper icon-svg-group iconsvg" transform="translate(48.52000427246094,95.78244590759277)"><g class="iconsvg-imagesvg" transform="translate(0,0)"><g><rect fill="#333" fill-opacity="0" stroke-width="2" x="0" y="0" width="60" height="58.435107812773914" class="image-rect"></rect> <svg x="0" y="0" width="60" height="58.435107812773914" filtersec="colorsb6352199979" class="image-svg-svg primary" style="overflow: visible;"><svg xmlns="http://www.w3.org/2000/svg" viewBox="0.0018897950649261475 0 81.98810577392578 79.85000610351562"><path d="M39.67 79.85c-3.3-3.33-6.48-6.57-9.68-9.77Q15.2 55.28.37 40.51c-.45-.45-.53-.66 0-1.15 2.78-2.75 5.55-5.53 8.32-8.36.35-.36.55-.43 1 0q14.82 14.86 29.67 29.7a1.07 1.07 0 0 1 .44.81v17.93a2.64 2.64 0 0 1-.13.41z" fill="#b6622c"></path><path d="M42.2 79.77v-.86V62.1a1.51 1.51 0 0 1 .48-1.1q14.9-14.83 29.77-29.71c.4-.4.59-.44 1 0 2.87 2.92 5.77 5.8 8.54 8.57-13.22 13.23-26.44 26.5-39.79 39.91z" fill="#4c3731"></path><path d="M39.7 45.82c-.26 0-.36-.24-.5-.38q-11-11-22-21.95c-.33-.34-.44-.51 0-.91Q28.28 11.51 39.33.4l.37-.34z" fill="#b6622c"></path><path d="M42.2 46.27v-.84-17a1.36 1.36 0 0 1 .43-1.1q6.51-6.45 13-12.94c.42-.42.61-.38 1 0 2.76 2.8 5.54 5.57 8.33 8.34.28.28.41.44 0 .81Q53.78 34.71 42.6 45.9zM42.25 0L44 1.77 48.18 6c.16.16.42.27.1.58l-6 6z" fill="#4c3731"></path></svg></svg> <!----></g></g> <g transform="translate(67,1.171304702758789)"><g data-gra="path-name" fill-rule="" class="tp-name iconsvg-namesvg" transform="translate(0,0)"><g transform="scale(1)"><g><path d="M22.76-19.86L22.76-2.02 42.58-2.02 42.58 1.32 2.46 1.32 2.46-2.02 19.25-2.02 19.25-36.96 22.76-36.96 22.76-23.16 39.51-23.16 39.51-19.86 22.76-19.86ZM58.45-32.34L58.45-32.34 56.47-29.75Q54.18-32.08 49.48-34.63L49.48-34.63Q49.22-34.76 49.04-34.85L49.04-34.85 50.93-37.22Q56.25-34.63 58.45-32.34ZM56.34-20.74L56.34-20.74 54.4-18.06Q52.12-20.3 47.15-22.68L47.15-22.68Q46.98-22.76 46.85-22.81L46.85-22.81 48.74-25.22Q54.05-22.81 56.34-20.74ZM50.93 2.86L50.93 2.86 47.99 0.88Q51.68-5.45 54.93-13.49L54.93-13.49 57.57-11.65Q54.45-3.87 50.93 2.86ZM87.8-32.08L87.8-29 65.35-29Q63.11-23.99 60.29-20.65L60.29-20.65Q59.11-21.88 57.61-22.76L57.61-22.76Q62.23-27.82 64.78-36.96L64.78-36.96Q64.91-37.35 65-37.71L65-37.71 68.25-36.96Q67.46-34.23 66.62-32.08L66.62-32.08 87.8-32.08ZM76.99-7.82L76.99-7.82 75.06-5.93Q73.08-8.31 69.08-10.85L69.08-10.85Q68.99-10.94 68.91-10.99L68.91-10.99 70.8-12.61Q74.66-10.28 76.99-7.82ZM64.51-5.84L64.51-5.84 80.64-5.84Q80.86-8.22 81.08-12.79L81.08-12.79 65.39-12.79Q65.21-11.29 64.86-8.44L64.86-8.44Q64.6-6.68 64.51-5.84ZM81.43-22.19L81.43-22.19 66.36-22.19Q66.23-20.87 65.96-18.06L65.96-18.06Q65.79-16.48 65.7-15.69L65.7-15.69 75.5-15.69Q73.7-17.84 69.96-20.08L69.96-20.08Q69.79-20.17 69.65-20.26L69.65-20.26 71.46-21.97Q75.32-19.78 77.39-17.53L77.39-17.53 75.59-15.69 81.21-15.69Q81.25-16.79 81.34-19.25L81.34-19.25Q81.39-21.18 81.43-22.19ZM88.24-15.69L88.24-12.79 84.16-12.79Q83.94-8.22 83.72-5.84L83.72-5.84 87.8-5.84 87.8-2.99 83.41-2.99Q82.88 0.7 82.05 1.76L82.05 1.76Q81.17 3.12 79.15 3.34L79.15 3.34Q79.06 3.34 79.01 3.34L79.01 3.34Q76.64 3.52 73.34 3.3L73.34 3.3Q73.13 1.41 72.51 0.48L72.51 0.48Q74.79 0.66 77.7 0.66L77.7 0.66Q78.84 0.7 79.32 0.04L79.32 0.04Q79.94-0.75 80.29-2.99L80.29-2.99 64.12-2.99 63.81-0.7 60.6-1.05Q61.66-7.29 62.31-12.79L62.31-12.79 57.74-12.79 57.74-15.69 62.67-15.69Q63.37-22.32 63.59-24.92L63.59-24.92 84.59-24.92Q84.59-24.87 84.55-23.38L84.55-23.38Q84.42-19.42 84.29-15.69L84.29-15.69 88.24-15.69ZM120.98-28.92L120.98-28.92 119-26.37Q116.54-28.92 111.14-32.17L111.14-32.17 112.94-34.41Q118.3-31.51 120.98-28.92ZM119.22-18.19L119.22-18.19 117.38-15.51Q114.83-17.89 109.6-20.52L109.6-20.52Q109.25-20.7 108.98-20.83L108.98-20.83 110.74-23.2Q116.37-20.65 119.22-18.19ZM101.73-16.66L107.27-18.24 107.67-15.21Q103.71-13.97 101.73-13.4L101.73-13.4 101.73-0.79Q101.73 1.67 100.28 2.42L100.28 2.42Q100.2 2.46 100.11 2.5L100.11 2.5Q98.66 3.12 94 3.12L94 3.12Q93.74 1.49 92.99 0L92.99 0Q94.22 0.04 97.6 0.04L97.6 0.04Q98.44-0.04 98.48-0.79L98.48-0.79 98.48-12.44 92.72-10.77 91.76-13.93Q93.6-14.37 98.48-15.73L98.48-15.73 98.48-25.44 92.29-25.44 92.29-28.52 98.48-28.52 98.48-37.62 101.73-37.62 101.73-28.52 107.27-28.52 107.27-25.44 101.73-25.44 101.73-16.66ZM132.71-13.32L133.24-10.2 126.74-9.18 126.74 3.43 123.44 3.43 123.44-8.66 107.84-6.06 107.18-9.23 123.44-11.78 123.44-37.66 126.74-37.66 126.74-12.35 132.71-13.32ZM152.45-34.23L174.95-34.23 174.95-31.03 152.45-31.03 152.45-34.23ZM149.77-32.61L149.77-32.61 147.79-29.88Q145.11-32.3 140.27-34.45L140.27-34.45Q139.75-34.67 139.31-34.85L139.31-34.85 141.15-37.35Q146.07-35.51 149.28-33L149.28-33Q149.59-32.78 149.77-32.61ZM147.52-21.05L147.52-21.05 145.59-18.19Q142.82-20.39 137.42-22.5L137.42-22.5Q137.11-22.59 136.89-22.68L136.89-22.68 138.74-25.22Q144.32-23.33 147.39-21.14L147.39-21.14Q147.48-21.09 147.52-21.05ZM146.78-13.8L146.78-13.8 149.28-11.65Q145.81-4.57 141.2 2.86L141.2 2.86 138.38 0.57Q142.69-5.63 146.78-13.8ZM178.42 1.98L178.42 1.98 175.34 3.43Q174.9 2.07 173.85-0.26L173.85-0.26Q170.24 0.04 149.68 1.76L149.68 1.76 149.15-1.67 153.59-1.93Q156.49-8.53 158.73-17.89L158.73-17.89 149.5-17.89 149.5-21.09 177.58-21.09 177.58-17.89 162.55-17.89Q159.35-7.6 157.02-2.15L157.02-2.15Q157.63-2.2 172.31-3.3L172.31-3.3Q169.89-7.65 167.43-10.9L167.43-10.9 170.33-12.13Q174.99-6.24 177.63-0.13L177.63-0.13Q178.11 1.01 178.42 1.98Z" transform="translate(-2.4600000381469727, 37.709999084472656)"></path></g> <!----> <!----> <!----> <!----> <!----> <!----> <!----></g></g> <g data-gra="path-slogan" fill-rule="" class="tp-slogan iconsvg-slogansvg" fill="#333" transform="translate(29.924171447753906,47.13999938964844)"><!----> <!----> <g transform="scale(1, 1)"><g transform="scale(1)"><path d="M7.17-6.09L7.17-6.09L6.09-6.09Q6-7.73 3.94-7.83L3.94-7.83Q2.02-7.78 2.02-6.33L2.02-6.33Q2.02-5.39 3.05-5.25L3.05-5.25L5.48-4.69Q7.41-4.22 7.41-2.34L7.41-2.34Q7.36 0.05 4.03 0.14L4.03 0.14Q2.20 0.14 1.45-0.61L1.45-0.61Q0.52-1.31 0.56-2.77L0.56-2.77L1.69-2.77Q1.73-0.80 4.03-0.75L4.03-0.75Q6.28-0.80 6.33-2.20L6.33-2.20Q6.52-3.38 4.45-3.75L4.45-3.75L2.67-4.13Q0.84-4.64 0.84-6.19L0.84-6.19Q0.98-8.72 3.84-8.81L3.84-8.81Q7.08-8.81 7.17-6.09ZM10.03-5.06L14.53-5.06L14.53-8.58L15.70-8.58L15.70 0L14.53 0L14.53-3.98L10.03-3.98L10.03 0L8.86 0L8.86-8.58L10.03-8.58L10.03-5.06ZM23.16 0L22.31-2.48L18.84-2.48L17.95 0L16.78 0L20.02-8.58L21.33-8.58L24.42 0L23.16 0ZM20.58-7.31L19.22-3.52L21.89-3.52L20.63-7.31L20.58-7.31ZM26.86-8.58L31.17-1.64L31.17-8.58L32.30-8.58L32.30 0L30.98 0L26.63-6.94L26.58-6.94L26.58 0L25.45 0L25.45-8.58L26.86-8.58ZM40.50-3.61L37.88-3.61L37.88-4.59L41.63-4.59L41.63 0L40.88 0L40.59-1.08Q39.61 0.09 37.78 0.14L37.78 0.14Q36.05 0.14 35.11-0.75L35.11-0.75Q33.70-2.06 33.75-4.36L33.75-4.36Q34.08-8.63 37.83-8.81L37.83-8.81Q41.02-8.63 41.48-6L41.48-6L40.36-6Q39.89-7.78 37.78-7.83L37.78-7.83Q35.11-7.64 34.97-4.31L34.97-4.31Q34.97-0.75 37.83-0.75L37.83-0.75Q38.86-0.75 39.61-1.31L39.61-1.31Q40.55-2.06 40.50-3.61L40.50-3.61ZM44.58-5.06L49.08-5.06L49.08-8.58L50.25-8.58L50.25 0L49.08 0L49.08-3.98L44.58-3.98L44.58 0L43.41 0L43.41-8.58L44.58-8.58L44.58-5.06ZM57.70 0L56.86-2.48L53.39-2.48L52.50 0L51.33 0L54.56-8.58L55.88-8.58L58.97 0L57.70 0ZM55.13-7.31L53.77-3.52L56.44-3.52L55.17-7.31L55.13-7.31ZM60.19-8.58L61.36-8.58L61.36 0L60.19 0L60.19-8.58ZM70.17 0L66.70 0L66.70-8.58L70.22-8.58Q73.69-8.39 73.83-4.41L73.83-4.41Q73.64-0.09 70.17 0L70.17 0ZM70.03-7.64L67.88-7.64L67.88-0.98L70.13-0.98Q72.56-1.13 72.66-4.31L72.66-4.31Q72.61-7.55 70.03-7.64L70.03-7.64ZM82.08-4.27L82.08-4.27Q81.89-7.64 79.08-7.83L79.08-7.83Q76.22-7.69 76.08-4.27L76.08-4.27Q76.22-0.94 79.08-0.80L79.08-0.80Q81.89-0.98 82.08-4.27ZM83.25-4.27L83.25-4.27Q82.97 0 79.08 0.14L79.08 0.14Q75.14 0 74.86-4.27L74.86-4.27Q75.09-8.72 79.08-8.81L79.08-8.81Q82.97-8.67 83.25-4.27ZM90.28-3.19L90.28-8.58L91.45-8.58L91.45-3.05Q91.31 0.05 87.94 0.14L87.94 0.14Q84.80 0.05 84.66-2.86L84.66-2.86L84.66-8.58L85.83-8.58L85.83-3.19Q85.88-0.84 87.98-0.80L87.98-0.80Q90.28-0.84 90.28-3.19L90.28-3.19ZM100.17-8.58L96.94-3.47L96.94 0L95.77 0L95.77-3.47L92.53-8.58L93.89-8.58L96.33-4.45L98.81-8.58L100.17-8.58ZM106.88-3.19L106.88-8.58L108.05-8.58L108.05-3.05Q107.91 0.05 104.53 0.14L104.53 0.14Q101.39 0.05 101.25-2.86L101.25-2.86L101.25-8.58L102.42-8.58L102.42-3.19Q102.47-0.84 104.58-0.80L104.58-0.80Q106.88-0.84 106.88-3.19L106.88-3.19ZM111.23-8.58L115.55-1.64L115.55-8.58L116.67-8.58L116.67 0L115.36 0L111-6.94L110.95-6.94L110.95 0L109.83 0L109.83-8.58L111.23-8.58Z" transform="translate(-0.5602678571428572, 8.8125)"></path></g></g></g></g></g><defs v-gra="od"></defs></svg>